<svg width="1011" height="900" viewBox="0 0 1011 900" fill="none" xmlns="http://www.w3.org/2000/svg">
<path d="M996.19 869.897H947.08C942.489 847.352 924.836 828.889 901.747 823.979L860.387 815.184L806.995 772.921L768.305 737.542C754.167 724.616 734.193 746.504 748.328 759.433L776.924 785.581C771.849 791.639 766.774 797.697 761.7 803.753L449.79 635.473C447.044 633.992 443.908 633.417 440.81 633.826L284.508 654.649C259.46 657.986 239.725 677.836 236.517 702.923L225.402 789.789H202.125L201.795 669.88C201.732 646.162 215.458 624.151 236.762 613.803C246.4 609.123 357.351 555.892 357.351 555.892H525.728L690.304 706.376C704.438 719.302 724.417 697.414 710.281 684.485L546.284 534.531V386.173H822.342C861.706 386.173 893.728 354.133 893.728 314.748C893.728 306.561 887.099 299.923 878.918 299.923H523.645C517.405 292.114 510.014 285.188 501.648 279.409C520.179 262.537 531.901 238.267 532.059 211.292V137.681C532.053 134.218 532.181 130.787 531.818 127.391C568.697 104.631 575.194 51.339 544.589 20.4137C510.954 -13.5792 451.678 -2.54405 432.603 41.3238C387.331 42.6006 339.745 69.7962 334.43 120.521C332.848 135.624 336.558 151.822 347.213 163.05L346.893 210.466C346.734 237.972 359.075 264.482 380.132 282.12C373.268 287.325 367.149 293.316 361.861 299.927H206.732C187.584 299.927 187.584 329.576 206.732 329.576H345.302C342.231 338.156 340.284 347.209 339.566 356.528H80.957C63.1441 356.528 47.8981 345.315 41.9052 329.576H126.375C145.523 329.576 145.523 299.927 126.375 299.927H24.3805C16.1997 299.927 9.57093 306.565 9.57093 314.752C9.57093 354.137 41.5951 386.177 80.957 386.177H339.244V531.679C339.244 531.679 233.342 582.516 223.834 587.134C192.363 602.418 172.083 634.933 172.178 669.966L172.549 815.966L117.256 834.002C100.437 839.487 88.1327 853.228 84.1815 869.901H14.8096C6.62876 869.901 0 876.538 0 884.725C0 892.912 6.62876 899.549 14.8096 899.549H996.19C1004.37 899.549 1011 892.912 1011 884.725C1011 876.538 1004.37 869.897 996.19 869.897ZM368.863 526.248V480.67H516.666V526.248H368.863ZM861.394 329.574C855.401 345.313 840.155 356.526 822.342 356.526H545.966C545.243 347.197 543.27 338.15 540.196 329.574H861.394ZM495.761 29.6937C506.171 29.6937 516.22 33.8721 523.546 41.2763C538.417 56.3022 538.281 81.7662 523.24 96.6735C518.526 86.6641 511.795 77.1668 503.958 69.3653C492.657 58.1147 479.064 50.0128 464.237 45.4765C471.466 35.7598 482.976 29.6937 495.761 29.6937ZM363.887 123.61C367.497 89.1764 402.696 71.0315 435.601 70.905C472.305 70.905 502.185 101.008 502.242 137.553V189.884C470.571 165.47 433.978 150.078 393.486 150.078C376.522 150.078 361.812 143.445 363.887 123.61ZM376.73 178.327C385.754 180.055 387.596 179.727 393.492 179.727C436.25 179.727 468.154 201.259 500.609 225.81C493.836 253.397 468.922 273.914 439.293 273.912C439.216 273.912 439.135 273.912 439.06 273.912C422.268 273.851 406.517 267.243 394.703 255.308C382.875 243.354 376.414 227.49 376.513 210.652L376.73 178.327ZM439.07 303.56H439.412C451.261 303.56 462.596 301.287 473.03 297.196C485.762 302.92 496.314 311.927 503.847 322.996C503.889 323.059 503.938 323.12 503.982 323.184C512.075 335.156 516.664 349.486 516.664 364.614V364.634V451.02H368.861V364.634V364.614C368.861 349.517 373.426 335.197 381.536 323.205C381.647 323.047 381.749 322.883 381.854 322.719C388.601 312.909 397.736 304.685 408.76 298.959C408.973 298.848 409.171 298.718 409.378 298.597C418.801 301.809 428.79 303.523 439.07 303.56ZM850.841 843.464L895.592 852.979C903.733 854.711 910.514 859.844 914.568 866.691H829.565C816.576 866.691 806.008 856.092 806.008 843.065C806.008 838.535 803.939 834.253 800.39 831.443L786.43 820.376L799.492 804.781L844.73 840.59C846.521 842.008 848.612 842.99 850.841 843.464ZM126.428 862.188L191.944 840.82C198.041 838.831 202.166 833.143 202.166 826.725V819.437H221.101C220.402 823.116 219.371 827.569 219.462 831.37L219.94 850.491C219.235 860.324 213.988 865.724 204.194 866.689H118.822C120.945 864.695 123.522 863.137 126.428 862.188ZM249.551 849.752L249.105 831.982L265.897 706.69C267.404 694.92 276.661 685.606 288.413 684.041L439.961 663.852L757.122 834.967L776.928 850.665C777.919 857.595 780.259 864.092 783.651 869.899H245.43C248.297 863.673 249.727 856.826 249.551 849.752Z" fill="#2E7D32"/>
</svg>
