<svg width="23" height="24" viewBox="0 0 23 24" fill="none" xmlns="http://www.w3.org/2000/svg">
<path d="M22.6833 23.2955C21.5005 23.2895 20.3445 23.2851 19.1975 23.2823C19.4086 22.9191 19.4582 22.4242 19.2974 22.0287L17.6198 17.8681V17.6237C17.6198 16.9635 17.1841 16.4072 16.5965 16.2504V15.5358C16.5965 14.7697 16.4406 14.0282 16.1331 13.3318C15.9329 12.8783 15.8196 12.3992 15.7585 11.9062L15.416 9.16172C15.392 8.9692 15.2227 8.83355 15.0378 8.85844C14.853 8.88347 14.7226 9.05981 14.7466 9.25237L15.0886 11.9927C15.1463 12.5588 15.2914 13.1081 15.5198 13.6255C15.7863 14.2292 15.9214 14.8719 15.9214 15.5359V16.3517H13.2688V4.58011H14.1636L14.5178 7.41844C14.5418 7.61095 14.7111 7.74656 14.896 7.72172C15.0808 7.69669 15.2112 7.52034 15.1872 7.32778L14.8075 4.28517C15.1276 3.57623 15.3645 2.87709 15.0111 2.11373L14.5242 1.06237C14.2209 0.407109 13.6105 0 12.9314 0C12.745 0 12.5939 0.157406 12.5939 0.351562L12.6043 19.0294C12.6043 19.3186 12.3772 19.5539 12.098 19.5539C11.7203 19.5539 11.3486 19.66 11.0244 19.856C10.6053 19.4609 10.0679 19.2429 9.49707 19.2399L8.28814 19.2328C8.01542 18.9524 7.61538 18.8521 7.2423 18.8886C6.32 18.9784 5.70494 19.6593 5.4256 20.4767C4.46518 20.4046 3.61047 21.219 3.60341 22.2247C3.60075 22.6086 3.7156 22.992 3.93049 23.2956C2.68318 23.295 1.42848 23.2833 0.312704 23.2956C-0.113839 23.3002 -0.0968279 24.0078 0.319815 23.9999C1.78018 23.9839 6.68363 23.9938 7.23533 23.9999C7.69328 24.0084 7.60395 23.4412 7.28618 23.2938C6.53089 22.9583 5.91506 22.4398 5.9286 21.4823C5.94103 20.6067 6.41784 19.675 7.30522 19.5885C7.79252 19.5413 8.0066 19.9102 8.00178 20.3671L7.97586 21.723C7.97437 21.8007 7.99764 21.8767 8.04202 21.9391L9.01666 23.3109C8.87652 23.3537 8.77418 23.4885 8.77418 23.6483C8.77418 23.8425 8.9253 23.9999 9.1117 23.9999C9.1117 23.9999 19.511 23.9838 22.6801 23.9999C23.1046 23.9999 23.1076 23.2977 22.6833 23.2955ZM4.57067 22.9789C4.38021 22.7781 4.27643 22.512 4.27842 22.2298C4.28242 21.6574 4.72499 21.192 5.27209 21.1754C5.19653 21.8825 5.38172 22.5944 5.83315 23.1359C5.44248 23.386 4.89474 23.3206 4.57067 22.9789ZM16.9448 17.6237V17.9389C16.9448 17.9857 18.6732 22.2965 18.6732 22.2965C18.8433 22.7571 18.4902 23.2635 18.0285 23.2635H13.3228C12.7442 23.2602 12.7621 22.3205 13.3275 22.3205L17.4776 22.3371C17.7112 22.3371 17.8821 22.0685 17.7881 21.8446L16.6069 19.0332V18.6462V17.0086C16.8089 17.133 16.9448 17.3621 16.9448 17.6237ZM16.6015 20.774L16.9619 21.6319L16.4478 21.6299C16.5334 21.3533 16.5855 21.0651 16.6015 20.774ZM15.9235 17.0547L15.9286 18.2947H13.2774L13.2707 17.0547H15.9235ZM13.2689 0.758766C13.5462 0.853922 13.777 1.06706 13.9163 1.36781L14.4032 2.41922C14.637 2.9242 14.4779 3.41667 14.2459 3.87703H13.2689V0.758766ZM13.2793 19.0294V18.9978H15.9315V20.5801C15.9315 20.9454 15.8634 21.2964 15.7296 21.627H13.3303C12.5261 21.627 11.967 22.5282 12.317 23.2844C11.9436 23.2856 11.6351 23.2731 11.3104 23.0557C11.5999 22.6606 11.7735 22.1693 11.7773 21.6362C11.7803 21.1978 11.6698 20.7767 11.46 20.4091C11.6568 20.3092 11.8729 20.257 12.098 20.257C12.7494 20.257 13.2793 19.7063 13.2793 19.0294ZM8.65303 21.6172L8.6767 20.378C8.67846 20.2129 8.66387 20.0671 8.63831 19.938L9.49347 19.943C9.9278 19.9453 10.3345 20.1232 10.6387 20.4439C10.9407 20.7624 11.1054 21.184 11.1022 21.6342C11.0966 22.4321 10.547 23.0981 9.81979 23.2593L8.65303 21.6172Z" fill="#2E7D32"/>
</svg>
