<svg width="23" height="12" viewBox="0 0 23 12" fill="none" xmlns="http://www.w3.org/2000/svg">
<path d="M22.6631 11.3354H22.2357C22.341 11.0178 22.2568 10.6416 22.058 10.3764L21.1056 9.09969C21.1052 9.09911 21.1047 9.09862 21.1043 9.09805C21.1037 9.09729 21.1032 9.09645 21.1026 9.0957L14.8203 0.932051C14.0111 -0.165445 12.2742 -0.346139 11.3111 0.671443L7.13476 5.18675C6.84434 5.50149 7.33345 5.94784 7.62926 5.63806L8.44428 4.78434C8.69979 4.51434 9.14717 4.90231 8.89498 5.17581L3.3452 11.0793C3.20315 11.2313 3.01772 11.3169 2.79176 11.3354H1.46171C1.56396 11.1331 1.79674 10.9825 2.02548 10.9708C2.19044 10.9959 2.51473 10.9959 2.6384 10.8663L6.44368 6.88015C6.74228 6.56736 6.25169 6.11201 5.95305 6.42472L5.62197 6.77153C5.33613 6.50888 4.95807 6.35831 4.55854 6.35831C3.69815 6.35831 2.99818 7.04826 2.99818 7.8964C2.99818 8.32548 3.17746 8.72558 3.48351 9.01171L2.24758 10.3064C2.16694 10.3062 2.08415 10.3031 2.00343 10.3067C1.64544 10.3217 1.31486 10.4731 1.07246 10.7331C0.911465 10.9057 0.802529 11.1127 0.751723 11.3355H0.336914C0.150803 11.3355 0 11.4842 0 11.6678C0 11.8513 0.150803 12 0.336914 12H22.6631C22.8492 12 23 11.8513 23 11.6678C23 11.4842 22.8492 11.3354 22.6631 11.3354ZM3.67191 7.89632C3.67191 7.41461 4.06965 7.0227 4.55845 7.0227C4.78422 7.0227 4.99805 7.10731 5.16022 7.25509L3.94549 8.52761C3.77299 8.36522 3.67191 8.13894 3.67191 7.89632ZM21.5809 11.1634C21.517 11.2881 21.322 11.335 21.1931 11.3354H18.6707C18.7698 11.151 18.9489 11.011 19.1674 10.9654L20.1685 10.751C20.4625 10.6881 20.5044 10.3126 20.4147 10.0817L20.7765 9.77985L21.5092 10.7621C21.6077 10.9139 21.6338 11.0599 21.5809 11.1634ZM12.6533 3.64972L12.1867 4.15171L10.4735 2.55422L10.9378 2.04753L12.6533 3.64972ZM9.09443 7.30865C9.10948 7.66641 8.98231 8.00844 8.73636 8.27166L8.27115 8.76957L7.29028 7.86012L8.67113 6.39127C8.92939 6.63261 9.0797 6.95745 9.09443 7.30865ZM6.83217 8.34745L7.59714 9.02456C7.86636 9.26713 7.96002 9.57656 7.66502 9.83571C7.07223 10.3562 6.19019 10.0524 5.68518 9.56761L6.83217 8.34745ZM9.1292 5.90403L9.39132 5.62522C9.83398 5.1452 9.65443 4.35376 9.04978 4.09878L10.0207 3.0466L11.7328 4.64303L10.3282 6.17292C10.1359 6.38148 9.8741 6.51292 9.59325 6.54641C9.48489 6.30724 9.32852 6.08933 9.1292 5.90403ZM5.22702 10.0549C5.9942 10.7738 7.25192 11.0881 8.11307 10.3319C8.38763 10.0909 8.53381 9.79885 8.53583 9.48747C8.53588 9.48096 8.53561 9.47396 8.53547 9.46727L9.23189 8.72191C9.61422 8.31272 9.80941 7.74747 9.76179 7.19343C10.1687 7.1253 10.5452 6.9252 10.8271 6.61945L13.1426 4.10671L16.7422 7.46852C17.0585 7.764 17.5219 7.28145 17.2056 6.98607L11.3936 1.55808L11.7998 1.12891C12.5166 0.423016 13.6869 0.555203 14.2812 1.33092L20.3727 9.24631L19.9781 9.57541L18.4995 8.19453C18.1833 7.89911 17.7198 8.38165 18.0361 8.67699L19.6482 10.1825L19.0262 10.3157C18.4943 10.4267 18.0829 10.8327 17.9548 11.3354H4.02329L5.22702 10.0549Z" fill="#2E7D32"/>
</svg>
