<svg width="32" height="22" viewBox="0 0 1307 1675" fill="none" xmlns="http://www.w3.org/2000/svg">
<path d="M1236.25 784.835C1231.74 784.85 1227.34 786.167 1223.56 788.629C1219.79 791.09 1216.81 794.59 1214.98 798.707C1165.56 907.505 1083.85 998.456 980.948 1059.21C1046.18 973.209 1138.16 834.191 1185.51 681.992C1186.48 678.903 1186.8 675.645 1186.44 672.426C1186.08 669.208 1185.06 666.099 1183.44 663.297C1155.56 615.057 1124.11 568.974 1089.34 525.438C1080.84 514.314 1071.56 502.181 1061.3 488.421C1058.91 485.262 1055.77 482.76 1052.15 481.15C1048.54 479.54 1044.57 478.873 1040.63 479.213C1036.68 479.553 1032.89 480.888 1029.6 483.094C1026.32 485.3 1023.64 488.303 1021.83 491.824C1001.25 533.015 974.687 570.94 943.015 604.369C965.241 543.657 983.354 481.516 997.231 418.37C997.93 415.05 997.896 411.617 997.135 408.312C996.373 405.006 994.9 401.905 992.819 399.226C978.91 381.353 966.384 365.406 954.681 350.487C924.357 311.919 900.464 281.445 871.43 241.475C868.811 237.86 865.211 235.071 861.057 233.438C856.902 231.805 852.367 231.396 847.988 232.259C843.608 233.123 839.567 235.222 836.344 238.31C833.12 241.397 830.848 245.344 829.796 249.682C825.403 267.344 818.477 284.277 809.231 299.954C805.324 246.84 792.873 178.004 756.884 134.818C725.131 97.6895 697.546 57.19 674.625 14.0462C672.715 10.0851 669.727 6.74306 666.003 4.40425C662.279 2.06544 657.971 0.824707 653.574 0.824707C649.177 0.824707 644.868 2.06544 641.145 4.40425C637.421 6.74306 634.432 10.0851 632.523 14.0462C609.601 57.19 582.017 97.6894 550.264 134.818C514.294 178.004 501.843 246.84 497.917 299.954C488.671 284.277 481.745 267.344 477.352 249.682C476.3 245.344 474.028 241.397 470.804 238.31C467.581 235.222 463.54 233.123 459.16 232.259C454.781 231.396 450.245 231.805 446.091 233.438C441.937 235.071 438.337 237.86 435.717 241.475C406.721 281.501 382.735 311.975 352.505 350.543C340.783 365.499 328.201 381.39 314.348 399.282C312.267 401.961 310.794 405.062 310.032 408.368C309.27 411.674 309.237 415.106 309.935 418.426C323.812 481.572 341.925 543.713 364.152 604.425C332.48 570.996 305.92 533.072 285.332 491.88C283.525 488.358 280.852 485.353 277.566 483.146C274.28 480.939 270.487 479.602 266.544 479.26C262.601 478.945 258.643 479.624 255.031 481.234C251.418 482.844 248.268 485.335 245.867 488.477C235.509 502.237 226.236 514.389 217.824 525.494C183.057 569.031 151.605 615.113 123.73 663.353C122.106 666.155 121.082 669.264 120.725 672.482C120.368 675.701 120.684 678.959 121.655 682.048C168.861 834.191 260.898 973.209 326.051 1059.21C223.178 998.445 141.497 907.495 92.0977 798.707C90.2664 794.59 87.2837 791.09 83.509 788.629C79.7343 786.167 75.3286 784.85 70.8224 784.835C66.2787 784.631 61.7835 785.841 57.9564 788.299C54.1292 790.757 51.1586 794.341 49.4537 798.558C-5.46241 908.708 -14.3991 1036.16 24.6077 1152.89C63.6144 1269.63 147.373 1366.1 257.476 1421.11C329.174 1459.41 409.047 1479.85 490.326 1480.71C538.337 1481.47 585.969 1472.12 630.13 1453.27V1650.75C630.13 1656.94 632.592 1662.89 636.975 1667.27C641.357 1671.65 647.301 1674.12 653.499 1674.12C659.697 1674.12 665.641 1671.65 670.024 1667.27C674.406 1662.89 676.868 1656.94 676.868 1650.75V1431.88C1047.97 1335.37 1155.62 1145.86 1160.14 1137.71C1161.66 1135.01 1162.62 1132.05 1162.98 1128.98C1163.34 1125.91 1163.08 1122.8 1162.23 1119.83C1161.38 1116.86 1159.95 1114.08 1158.02 1111.67C1156.08 1109.26 1153.69 1107.25 1150.98 1105.77C1148.27 1104.28 1145.29 1103.35 1142.22 1103.03C1139.15 1102.7 1136.04 1102.99 1133.08 1103.88C1130.12 1104.76 1127.36 1106.22 1124.97 1108.18C1122.58 1110.14 1120.6 1112.55 1119.14 1115.27C1118.15 1117.14 1019.37 1291.2 676.943 1383.59V1048.1C910.317 934.716 1005.96 781.414 1009.96 774.871C1011.62 772.249 1012.74 769.323 1013.25 766.264C1013.77 763.205 1013.67 760.074 1012.96 757.054C1012.26 754.034 1010.96 751.184 1009.14 748.672C1007.32 746.16 1005.01 744.036 1002.36 742.422C999.714 740.809 996.77 739.739 993.703 739.276C990.636 738.812 987.507 738.964 984.499 739.722C981.491 740.48 978.664 741.829 976.183 743.691C973.702 745.553 971.617 747.89 970.048 750.567C969.169 752.025 883.414 889.51 676.85 995.943V721.122C844.341 592.498 880.236 465.725 881.694 460.303C883.311 454.319 882.483 447.937 879.394 442.562C876.306 437.187 871.208 433.26 865.224 431.643C859.239 430.027 852.857 430.854 847.482 433.943C842.108 437.032 838.18 442.129 836.564 448.114C836.265 449.217 806.52 551.2 676.831 661.147V228.351C676.831 222.153 674.369 216.209 669.986 211.826C665.604 207.444 659.66 204.981 653.462 204.981C647.264 204.981 641.32 207.444 636.937 211.826C632.555 216.209 630.093 222.153 630.093 228.351V661.147C500.403 551.219 470.678 449.217 470.36 448.114C468.743 442.129 464.816 437.032 459.441 433.943C454.066 430.854 447.685 430.027 441.7 431.643C435.715 433.26 430.618 437.187 427.529 442.562C424.44 447.937 423.613 454.319 425.229 460.303C426.688 465.725 462.62 592.498 630.093 721.122V995.943C424.444 889.884 337.773 751.988 336.875 750.548C333.557 745.463 328.389 741.87 322.467 740.529C316.545 739.187 310.333 740.204 305.148 743.363C299.962 746.522 296.21 751.575 294.685 757.453C293.16 763.33 293.983 769.571 296.98 774.852C300.999 781.433 396.626 934.641 630.074 1048.08V1383.59C290.118 1291.8 189.145 1117.46 187.892 1115.22C184.787 1110.04 179.796 1106.26 173.966 1104.68C168.137 1103.1 161.922 1103.84 156.624 1106.74C151.327 1109.64 147.358 1114.48 145.551 1120.24C143.744 1126.01 144.239 1132.25 146.931 1137.65C151.212 1145.49 250.615 1320.66 587.355 1419.95C500.721 1448.52 382.754 1434.55 279.387 1379.79C208.129 1343.15 148.607 1287.21 107.617 1218.36C66.6263 1149.51 45.8175 1070.52 47.5654 990.409C48.5636 947.3 57.099 904.699 72.7854 864.533C141.958 988.521 256.523 1087.98 407.207 1154.01C412.119 1156.16 417.618 1156.55 422.784 1155.12C427.95 1153.69 432.469 1150.53 435.582 1146.17C438.696 1141.81 440.215 1136.51 439.886 1131.16C439.557 1125.81 437.398 1120.74 433.773 1116.79C431.904 1114.71 244.82 909.907 169.141 677.767C194.739 634.496 223.338 593.071 254.728 553.799L261.272 545.236C295.435 606.879 344.985 658.62 405.095 695.416C409.354 697.841 414.267 698.865 419.141 698.345C424.014 697.824 428.6 695.784 432.251 692.514C435.901 689.244 438.431 684.909 439.483 680.122C440.534 675.335 440.054 670.339 438.11 665.84C404.724 586.005 377.888 503.586 357.87 419.398C369.087 405.003 379.407 391.878 389.166 379.446C409.581 353.46 428.071 329.96 447.327 304.384C458.373 326.557 471.58 347.585 486.756 367.163C491.878 374.155 496.702 380.736 500.815 387.036C503.647 391.368 507.838 394.637 512.729 396.33C517.619 398.023 522.934 398.044 527.838 396.391C532.742 394.738 536.959 391.503 539.827 387.194C542.695 382.886 544.051 377.747 543.683 372.585C543.589 371.145 534.204 227.023 586.046 164.805C610.693 135.403 633.233 104.298 653.499 71.7212C673.759 104.297 696.293 135.402 720.933 164.805C772.775 227.023 763.39 371.145 763.297 372.585C762.929 377.747 764.285 382.886 767.153 387.194C770.02 391.503 774.237 394.738 779.142 396.391C784.046 398.044 789.36 398.023 794.251 396.33C799.142 394.637 803.332 391.368 806.165 387.036C810.297 380.736 815.12 374.174 820.224 367.182C835.4 347.603 848.606 326.575 859.652 304.403C878.927 329.96 897.417 353.478 917.814 379.465C927.572 391.897 937.892 405.021 949.109 419.417C929.091 503.604 902.256 586.023 868.869 665.858C866.927 670.359 866.45 675.356 867.504 680.142C868.559 684.929 871.091 689.263 874.744 692.531C878.397 695.8 882.985 697.837 887.859 698.354C892.733 698.872 897.646 697.844 901.904 695.416C961.969 658.646 1011.49 606.953 1045.65 545.367L1052.2 553.929C1083.56 593.193 1112.13 634.604 1137.71 677.861C1062.14 909.682 874.983 1114.81 873.076 1116.88C869.45 1120.83 867.292 1125.9 866.963 1131.25C866.633 1136.6 868.153 1141.9 871.266 1146.27C874.38 1150.63 878.898 1153.79 884.064 1155.21C889.231 1156.64 894.73 1156.25 899.642 1154.1C1050.33 1088.07 1164.95 988.595 1234.06 864.627C1249.75 904.792 1258.29 947.394 1259.28 990.502C1259.28 1253.96 1056.78 1412.12 856.717 1432.18C850.549 1432.8 844.88 1435.84 840.956 1440.64C837.033 1445.44 835.177 1451.6 835.797 1457.77C836.417 1463.94 839.462 1469.61 844.261 1473.53C849.061 1477.46 855.223 1479.31 861.391 1478.69C1082.33 1456.5 1306.02 1281.7 1306.02 990.502C1303.64 923.788 1287.07 858.346 1257.41 798.539C1255.57 794.47 1252.59 791.017 1248.84 788.588C1245.09 786.159 1240.72 784.857 1236.25 784.835Z" fill="#F6893D"/>
</svg>
