<?xml version="1.0" standalone="no"?>
<!DOCTYPE svg PUBLIC "-//W3C//DTD SVG 20010904//EN"
 "http://www.w3.org/TR/2001/REC-SVG-20010904/DTD/svg10.dtd">
<svg version="1.0" xmlns="http://www.w3.org/2000/svg"
 width="1044.000000pt" height="1280.000000pt" viewBox="0 0 1044.000000 1280.000000"
 preserveAspectRatio="xMidYMid meet">
<metadata>
Created by potrace 1.15, written by Peter Selinger 2001-2017
</metadata>
<g transform="translate(0.000000,1280.000000) scale(0.100000,-0.100000)"
fill="#000000" stroke="none">
<path d="M4860 12789 c-175 -20 -330 -68 -425 -132 -270 -182 -586 -696 -707
-1151 -15 -57 -22 -112 -22 -186 -1 -103 0 -107 43 -205 24 -55 58 -143 76
-195 18 -52 83 -223 145 -380 143 -363 184 -488 215 -656 30 -160 33 -332 9
-434 -21 -90 -79 -174 -230 -330 -138 -143 -147 -163 -76 -168 104 -8 221 56
289 156 167 244 228 465 189 673 -33 174 -216 680 -342 944 -182 381 -208 492
-165 712 36 181 103 355 233 600 103 195 165 286 269 390 149 151 308 240 566
319 67 21 120 41 117 46 -6 10 -81 9 -184 -3z"/>
<path d="M4903 12347 c-16 -17 -74 -88 -128 -157 -137 -175 -200 -232 -461
-422 -226 -163 -269 -198 -245 -198 49 0 398 164 519 244 80 53 116 91 180
189 66 103 183 360 169 373 -2 2 -17 -11 -34 -29z"/>
<path d="M5227 12298 c10 -44 72 -163 104 -202 18 -21 59 -56 91 -77 58 -37
265 -129 323 -143 l29 -7 -19 22 c-11 12 -94 81 -185 154 -91 73 -201 165
-245 204 -84 75 -107 86 -98 49z"/>
<path d="M6047 11580 c5 -58 8 -211 8 -340 0 -214 -2 -242 -23 -315 -31 -109
-88 -260 -195 -515 -142 -339 -158 -381 -154 -393 8 -24 161 195 278 398 88
154 168 327 190 414 39 152 14 421 -67 729 -36 140 -46 146 -37 22z"/>
<path d="M4284 11244 c-45 -22 -97 -68 -118 -105 l-19 -33 31 22 c92 66 175
77 288 38 60 -20 255 -98 377 -151 68 -29 30 1 -85 68 -280 161 -395 200 -474
161z"/>
<path d="M5473 11210 c-100 -35 -452 -224 -441 -236 3 -2 78 27 169 65 221 91
310 121 367 121 49 0 111 -24 164 -61 27 -20 29 -20 20 -3 -19 34 -96 103
-134 119 -47 19 -80 18 -145 -5z"/>
<path d="M4274 10795 c66 -62 158 -108 213 -107 49 0 121 22 216 65 114 51
101 56 -166 68 -117 5 -234 12 -262 15 l-50 5 49 -46z"/>
<path d="M5083 10776 c59 -56 158 -106 208 -106 69 0 289 83 289 110 0 14 -48
19 -245 25 -99 3 -207 8 -240 11 l-60 5 48 -45z"/>
<path d="M4927 10583 c67 -142 105 -242 101 -266 -4 -26 -67 -63 -122 -73 -33
-5 -37 -8 -21 -17 21 -11 145 -3 193 14 27 9 32 16 32 42 0 18 -13 59 -29 93
-31 67 -145 259 -169 287 -34 38 -29 12 15 -80z"/>
<path d="M4826 10119 c-74 -25 -196 -106 -196 -129 0 -4 60 9 133 27 103 27
143 33 183 28 86 -10 184 -45 184 -64 0 -12 -51 -18 -289 -36 -239 -18 -250
-23 -120 -50 131 -28 222 -29 339 -5 123 25 200 56 200 79 0 35 -175 128 -293
156 -77 18 -70 18 -141 -6z"/>
<path d="M6390 8640 c0 -8 314 -119 395 -141 39 -10 117 -27 174 -38 307 -58
405 -187 761 -996 73 -165 186 -415 250 -555 392 -850 693 -1562 799 -1894 39
-122 50 -235 28 -288 -44 -105 -214 -122 -524 -52 -327 73 -606 172 -1313 467
-458 191 -515 217 -880 407 -179 93 -354 180 -390 194 -90 33 -150 41 -175 22
-20 -14 -20 -14 1 -43 52 -70 363 -242 1109 -612 945 -471 1053 -513 1529
-606 131 -25 294 -64 362 -85 69 -22 133 -40 143 -40 33 0 195 62 230 88 126
93 90 356 -151 1092 -110 337 -264 756 -343 935 -121 273 -293 607 -523 1015
-86 151 -187 330 -225 398 -38 68 -96 185 -130 260 -88 198 -118 244 -205 304
-92 63 -268 112 -517 143 -139 17 -405 33 -405 25z"/>
<path d="M2958 8608 c-134 -8 -420 -76 -530 -126 -153 -70 -253 -183 -307
-347 -17 -52 -45 -184 -66 -310 -96 -587 -112 -636 -460 -1370 -356 -752 -426
-963 -442 -1330 -6 -151 5 -284 38 -448 49 -246 116 -333 263 -344 85 -7 154
16 386 129 249 121 294 138 578 219 254 73 315 96 326 126 18 47 -99 122 -206
130 -89 7 -145 -11 -388 -127 -125 -60 -246 -110 -310 -129 -58 -17 -139 -42
-180 -56 -43 -15 -107 -29 -150 -31 -64 -5 -80 -2 -108 16 -135 85 -154 638
-36 1048 54 186 120 317 379 752 339 569 377 671 480 1275 50 295 63 358 97
455 65 183 106 239 216 291 133 63 230 87 527 129 83 11 161 25 175 29 24 8
24 9 -10 14 -61 11 -152 12 -272 5z"/>
<path d="M4860 8448 c-28 -46 -58 -129 -140 -388 -125 -391 -163 -491 -241
-632 -99 -178 -113 -221 -112 -333 0 -70 9 -122 38 -235 50 -189 53 -287 13
-372 -65 -139 -221 -252 -483 -350 -197 -74 -505 -177 -804 -269 -337 -104
-469 -153 -642 -239 -105 -53 -139 -75 -139 -93 0 -25 469 78 785 173 296 90
828 302 1109 442 160 80 238 130 285 185 62 70 74 118 69 286 -4 141 -5 143
-43 222 -36 74 -39 87 -39 165 0 125 55 293 276 845 113 282 140 368 145 481
6 109 -3 144 -37 144 -12 0 -29 -13 -40 -32z"/>
<path d="M3692 8372 c11 -116 89 -218 190 -246 122 -35 590 -85 566 -60 -4 3
-75 26 -160 50 -84 25 -176 55 -204 68 -27 13 -119 73 -203 135 -85 61 -163
111 -174 111 -18 0 -19 -5 -15 -58z"/>
<path d="M6228 8387 c-220 -179 -324 -261 -370 -291 -75 -50 -148 -66 -295
-66 -68 0 -123 -4 -123 -9 0 -25 210 -91 312 -98 112 -8 152 10 253 112 124
124 319 395 286 395 -6 0 -34 -19 -63 -43z"/>
<path d="M5103 8293 c-4 -21 -8 -159 -7 -308 1 -319 1 -324 118 -604 108 -258
107 -257 104 -544 -2 -224 -1 -246 19 -299 30 -81 73 -140 182 -248 142 -142
353 -274 536 -337 274 -93 1057 -249 1004 -199 -9 8 -288 109 -574 206 -487
166 -753 279 -835 356 -96 89 -119 151 -150 404 -26 203 -31 228 -120 520
-101 333 -132 462 -184 745 -55 298 -65 345 -77 345 -4 0 -12 -17 -16 -37z"/>
<path d="M3371 7964 c0 -511 -3 -527 -309 -1349 -135 -365 -148 -405 -133
-405 30 0 221 303 335 530 98 197 143 315 162 430 18 113 18 428 -1 645 -15
169 -43 396 -50 403 -2 2 -4 -112 -4 -254z"/>
<path d="M4980 7453 c-14 -52 -45 -237 -70 -423 -15 -112 -20 -197 -18 -305 7
-372 4 -467 -16 -525 -29 -85 -136 -184 -306 -284 -212 -124 -226 -134 -380
-258 -169 -135 -244 -208 -216 -208 25 0 345 161 531 268 290 166 432 278 476
377 36 81 43 211 44 750 0 487 -6 645 -25 645 -5 0 -14 -17 -20 -37z"/>
<path d="M7035 6823 c16 -68 382 -765 473 -902 l37 -56 3 35 c5 45 -12 126
-55 275 -75 261 -137 367 -323 557 -118 121 -148 141 -135 91z"/>
<path d="M6467 4741 c-12 -49 39 -555 78 -762 68 -366 222 -870 332 -1088 86
-173 160 -267 182 -233 17 27 -18 163 -189 737 -118 399 -272 936 -330 1154
-23 85 -47 168 -54 185 -12 30 -13 30 -19 7z"/>
<path d="M3039 4624 c-8 -21 -8 -85 0 -239 6 -116 11 -288 11 -384 0 -205 -17
-303 -104 -606 -133 -464 -245 -910 -232 -923 21 -20 212 355 305 599 183 483
272 800 272 971 0 176 -117 496 -215 587 l-25 24 -12 -29z"/>
<path d="M5550 3120 c-702 -102 -771 -104 -1431 -45 -397 35 -479 38 -479 16
0 -22 196 -95 380 -141 221 -55 380 -70 752 -70 431 0 589 21 878 116 166 55
351 138 358 162 7 22 -110 12 -458 -38z"/>
<path d="M7845 2634 c-107 -16 -215 -65 -398 -181 -153 -97 -215 -127 -306
-147 -114 -25 -201 -30 -292 -17 -119 17 -168 33 -399 126 -292 119 -331 129
-470 130 -132 0 -200 -18 -256 -68 -46 -40 -58 -65 -94 -198 -59 -215 -86
-233 -452 -299 -175 -32 -211 -45 -216 -78 -9 -60 139 -143 224 -127 56 10
171 76 383 217 289 193 284 188 324 266 43 82 61 92 165 92 94 0 144 -12 437
-100 352 -106 460 -131 600 -137 188 -8 249 14 557 200 163 99 235 132 328
149 144 27 377 -32 781 -197 101 -41 185 -73 187 -71 8 8 -195 121 -371 207
-364 176 -602 252 -732 233z"/>
<path d="M2410 2353 c-106 -17 -425 -53 -510 -58 -145 -8 -269 -25 -307 -41
-45 -18 -44 -52 4 -105 44 -49 102 -84 164 -99 59 -15 107 -6 329 62 228 69
275 78 428 78 218 0 421 -37 737 -134 115 -36 211 -63 213 -61 15 15 -350 203
-541 280 -149 59 -272 85 -397 84 -52 -1 -106 -4 -120 -6z"/>
<path d="M9330 1906 c0 -3 98 -71 219 -150 558 -370 631 -456 631 -747 0 -145
-65 -494 -106 -569 -45 -83 -124 -129 -294 -174 -191 -50 -300 -61 -620 -60
-415 1 -561 17 -2015 219 -780 109 -1027 137 -1335 156 -238 14 -646 9 -675
-8 -19 -11 -19 -12 6 -22 49 -18 103 -30 254 -55 535 -90 2301 -324 3175 -420
491 -54 677 -68 920 -70 263 -1 320 9 410 74 30 22 96 69 146 104 217 155 370
399 390 625 15 167 -83 443 -221 620 -90 116 -199 195 -432 310 -217 108 -453
195 -453 167z"/>
<path d="M640 1747 c-223 -112 -418 -246 -488 -335 -47 -58 -107 -194 -128
-287 -22 -95 -24 -264 -5 -345 33 -136 125 -266 273 -385 169 -135 406 -256
579 -294 168 -37 775 -65 1004 -46 149 12 125 17 -382 71 -350 37 -622 88
-745 140 -148 62 -345 222 -444 360 -58 80 -111 195 -124 266 -21 110 21 249
127 425 125 209 188 279 387 428 67 51 83 65 73 65 -1 0 -59 -28 -127 -63z"/>
<path d="M6634 1619 c-244 -192 -398 -285 -554 -334 -47 -14 -197 -51 -335
-81 -398 -87 -511 -119 -1025 -293 -718 -242 -1519 -536 -1554 -571 -15 -15
76 -13 180 5 321 55 515 112 1143 337 819 292 869 308 1258 397 464 107 552
145 767 335 107 95 279 297 264 311 -2 2 -67 -45 -144 -106z"/>
</g>
</svg>
