<?xml version="1.0" standalone="no"?>
<!DOCTYPE svg PUBLIC "-//W3C//DTD SVG 20010904//EN"
 "http://www.w3.org/TR/2001/REC-SVG-20010904/DTD/svg10.dtd">
<svg version="1.0" xmlns="http://www.w3.org/2000/svg"
 width="1065.000000pt" height="1280.000000pt" viewBox="0 0 1065.000000 1280.000000"
 preserveAspectRatio="xMidYMid meet">
<metadata>
Created by potrace 1.15, written by Peter Selinger 2001-2017
</metadata>
<g transform="translate(0.000000,1280.000000) scale(0.100000,-0.100000)"
fill="#F6893D" stroke="none">
<path d="M6642 12114 c-11 -8 -23 -27 -27 -44 -6 -25 -9 -28 -25 -20 -33 18
-49 11 -68 -27 -19 -37 -60 -163 -101 -308 -11 -39 -27 -79 -35 -90 -15 -19
-15 -19 -16 5 -1 45 -36 109 -64 116 -29 7 -81 -20 -70 -37 6 -10 16 -104 30
-289 9 -113 40 -248 73 -321 75 -160 87 -276 73 -681 -7 -207 -8 -352 -2 -403
38 -327 38 -315 5 -309 -14 2 -25 1 -24 -3 4 -22 -2 -43 -10 -38 -5 3 -16 -1
-23 -9 -8 -7 -24 -16 -36 -20 -12 -4 -49 -26 -83 -49 -33 -23 -66 -45 -72 -48
-61 -32 -78 -40 -84 -41 -19 -2 -64 -20 -117 -47 -5 -2 -6 2 -1 9 6 10 4 12
-9 7 -10 -4 -24 -7 -31 -7 -8 0 -40 -24 -72 -53 -32 -30 -70 -57 -86 -61 -29
-7 -82 -70 -99 -118 -6 -16 -14 -28 -19 -28 -5 0 -9 -7 -9 -15 0 -8 -6 -14
-12 -13 -8 2 -11 -5 -9 -17 2 -11 4 -31 5 -45 0 -14 6 -28 13 -33 9 -6 9 -18
-2 -55 -18 -60 -13 -250 8 -307 15 -40 55 -125 84 -180 36 -66 98 -139 170
-198 41 -34 80 -64 85 -66 6 -2 26 -21 45 -42 20 -22 41 -39 47 -39 7 0 30
-18 51 -40 43 -44 55 -49 56 -22 1 29 26 -38 39 -104 l12 -62 -76 -153 c-120
-245 -151 -380 -149 -659 0 -130 6 -204 21 -290 12 -63 26 -146 33 -185 13
-83 69 -243 173 -495 77 -186 145 -391 167 -508 18 -93 6 -220 -29 -324 -33
-99 -83 -188 -122 -216 -14 -11 -91 -45 -170 -76 -180 -71 -283 -138 -410
-265 -74 -75 -105 -115 -139 -180 -41 -79 -43 -88 -34 -124 11 -39 -1 -110
-24 -152 -20 -35 -136 -123 -231 -176 -139 -76 -342 -214 -452 -307 -52 -44
-144 -132 -203 -195 -134 -144 -205 -198 -378 -286 -159 -83 -250 -110 -492
-151 -359 -60 -466 -120 -846 -475 -113 -106 -244 -233 -290 -284 -150 -164
-338 -308 -538 -410 -163 -84 -233 -159 -233 -250 0 -58 31 -113 115 -206 39
-44 90 -107 112 -140 56 -83 131 -223 111 -207 -18 14 -118 14 -118 0 0 -5 -9
-6 -20 -3 -12 4 -20 2 -20 -5 0 -6 -4 -9 -9 -5 -16 9 -24 -35 -9 -52 45 -55
294 -166 410 -182 104 -14 339 -6 392 14 25 10 43 21 40 26 -3 5 2 9 10 9 9 0
30 13 47 28 42 38 35 76 -17 98 -77 32 -112 66 -192 182 -92 135 -122 192
-157 296 -34 102 -33 146 5 189 77 88 374 247 770 412 118 49 328 145 465 213
298 148 324 159 418 173 119 17 336 68 385 89 25 11 67 34 93 50 43 26 428
169 669 249 169 55 488 221 730 379 145 94 230 158 403 303 l138 116 117 -24
c64 -13 203 -39 307 -59 305 -57 410 -85 720 -197 274 -98 554 -165 770 -182
44 -3 97 -8 117 -11 l37 -6 -47 -35 c-159 -119 -293 -301 -367 -498 -15 -38
-42 -135 -61 -215 -40 -165 -198 -704 -244 -833 -50 -136 -180 -392 -267 -522
-44 -66 -90 -139 -102 -162 -31 -62 -44 -134 -32 -178 8 -31 8 -35 -5 -24 -8
6 -14 7 -14 2 0 -5 -7 -10 -15 -11 -8 -1 -23 -3 -32 -4 -26 -2 -59 -36 -47
-48 5 -5 57 -26 114 -45 85 -29 130 -37 235 -45 72 -6 189 -15 260 -21 72 -5
213 -23 315 -39 287 -45 563 -66 578 -44 4 6 17 16 29 23 30 16 56 67 49 97
-4 13 -11 24 -16 24 -5 0 -36 24 -69 54 -40 35 -81 61 -123 76 -240 87 -397
173 -498 272 -83 81 -91 109 -61 187 48 121 223 385 492 742 190 252 324 467
454 729 31 63 86 167 121 231 35 63 90 180 121 260 l57 144 1 111 0 111 -37
55 c-93 140 -449 380 -942 632 -255 131 -409 200 -548 244 -93 30 -289 74
-383 87 l-51 6 29 87 c45 137 53 233 33 387 -40 300 -47 549 -20 706 13 72 15
132 11 258 l-5 163 29 46 c15 25 41 77 56 116 25 63 28 84 28 186 0 157 -17
228 -68 287 -47 53 -218 198 -292 248 -84 56 -183 170 -291 335 -34 52 -67
114 -73 137 -8 28 -11 133 -9 308 l3 266 55 26 c120 58 150 89 150 155 0 17
-10 46 -21 65 -18 29 -20 39 -10 59 15 34 14 64 -3 70 -12 4 -13 12 -5 31 9
25 7 31 -35 88 -7 9 0 24 22 49 54 62 44 82 -75 141 -39 19 -76 42 -83 50 -9
11 -10 55 -1 197 6 101 13 329 17 508 l6 325 -26 95 c-68 254 -186 768 -199
870 l-10 85 36 92 c21 51 37 97 37 103 0 5 12 44 26 87 20 62 28 118 39 268
16 218 14 237 -24 233 -28 -3 -33 -21 -62 -207 -8 -55 -14 -70 -21 -58 -5 11
-5 46 1 94 6 43 12 141 13 218 l3 140 -32 3 c-30 3 -32 6 -35 44 -4 48 -32 66
-66 42z m-110 -446 c-8 -8 -9 -4 -5 13 4 13 8 18 11 10 2 -7 -1 -18 -6 -23z"/>
</g>
</svg>
