<?xml version="1.0" standalone="no"?>
<!DOCTYPE svg PUBLIC "-//W3C//DTD SVG 20010904//EN"
 "http://www.w3.org/TR/2001/REC-SVG-20010904/DTD/svg10.dtd">
<svg version="1.0" xmlns="http://www.w3.org/2000/svg"
 width="1127.000000pt" height="1280.000000pt" viewBox="0 0 1127.000000 1280.000000"
 preserveAspectRatio="xMidYMid meet">
<metadata>
Created by potrace 1.15, written by Peter Selinger 2001-2017
</metadata>
<g transform="translate(0.000000,1280.000000) scale(0.100000,-0.100000)"
fill="#000000" stroke="none">
<path d="M5800 12229 c0 -4 -12 -6 -26 -3 -14 3 -23 1 -20 -5 3 -5 -11 -11
-32 -14 -77 -12 -102 -19 -95 -30 4 -6 0 -8 -8 -5 -15 6 -42 -16 -37 -29 2 -4
-10 -12 -27 -18 -35 -11 -105 -78 -105 -100 0 -8 -5 -15 -11 -15 -5 0 -8 -3
-5 -8 2 -4 -9 -26 -25 -50 -16 -23 -29 -49 -29 -57 0 -7 -4 -16 -8 -19 -37
-22 -51 -394 -20 -503 8 -29 13 -53 11 -53 -2 0 -12 6 -23 13 -34 20 -42 -6
-37 -128 5 -127 22 -184 73 -244 28 -32 42 -41 68 -41 30 0 34 -4 46 -42 24
-83 69 -168 113 -215 38 -41 48 -61 66 -133 26 -101 40 -302 22 -323 -6 -8
-39 -24 -72 -37 -68 -25 -81 -24 -267 9 -172 30 -258 18 -452 -64 l-65 -27
-119 12 c-128 13 -241 8 -366 -16 -107 -21 -197 -18 -340 11 -232 48 -357 53
-1173 42 -424 -6 -488 -9 -574 -27 -53 -11 -117 -20 -142 -20 -65 0 -234 -31
-246 -45 -5 -6 -22 -15 -37 -19 -37 -9 -37 -41 -1 -59 17 -9 76 -16 151 -20
163 -7 193 -28 89 -63 -28 -9 -87 -35 -129 -57 -62 -31 -78 -44 -78 -61 0 -12
5 -27 12 -34 17 -17 122 -15 166 4 70 30 127 44 182 44 79 1 191 23 300 60 91
31 100 32 210 27 63 -3 160 -15 215 -27 122 -27 563 -143 623 -164 127 -45
338 -69 484 -54 106 10 208 2 513 -43 91 -13 185 -19 317 -19 l186 0 12 -51
c7 -27 10 -63 7 -78 -3 -16 -50 -95 -104 -177 -162 -247 -206 -353 -206 -490
1 -134 55 -238 160 -304 l66 -42 -7 -101 c-3 -56 -9 -218 -12 -359 -6 -231 -9
-258 -24 -263 -15 -5 -16 -17 -12 -103 4 -95 4 -98 -23 -131 -23 -27 -28 -43
-30 -94 -1 -64 -35 -158 -69 -195 -9 -10 -23 -41 -31 -69 -8 -27 -28 -79 -44
-114 -16 -35 -34 -83 -41 -107 -11 -41 -102 -218 -140 -272 -9 -14 -27 -45
-40 -70 -12 -25 -59 -94 -104 -155 -120 -161 -152 -220 -237 -429 l-76 -189
-51 -19 c-59 -22 -103 -68 -151 -157 -37 -70 -41 -73 -109 -100 -81 -32 -312
-172 -447 -271 -122 -90 -165 -131 -270 -255 -33 -38 -88 -101 -123 -139 -72
-77 -113 -155 -138 -261 l-17 -72 -776 -213 c-1205 -331 -1564 -431 -1582
-441 -34 -18 -11 -53 61 -92 38 -21 72 -43 76 -49 4 -6 3 -8 -4 -4 -6 3 -20
-5 -31 -20 -39 -50 -28 -59 306 -235 166 -87 854 -441 1358 -699 225 -115 313
-160 735 -377 171 -88 404 -208 740 -381 567 -290 943 -484 1095 -562 94 -48
283 -145 420 -215 138 -70 309 -158 380 -195 445 -231 1402 -720 1409 -720 10
0 241 110 1671 800 1630 786 1485 712 1485 753 0 18 -6 41 -12 50 -7 9 -87 49
-178 88 -91 39 -190 82 -220 96 -30 14 -101 45 -158 69 -153 66 -426 187 -512
227 -41 19 -103 47 -137 61 -35 14 -86 37 -115 50 -77 34 -218 96 -258 113
-78 33 -147 68 -190 97 -53 35 -97 76 -82 76 6 0 9 9 7 20 -2 11 2 20 8 20 7
0 6 4 -3 10 -9 6 -11 10 -3 10 7 0 10 7 6 17 -4 10 -2 14 4 10 6 -4 9 5 7 24
-2 18 0 28 6 24 6 -3 7 1 4 9 -4 9 -1 16 6 16 10 0 10 3 0 15 -11 14 -7 19 13
16 4 0 7 3 7 9 0 5 -4 10 -10 10 -5 0 -10 5 -10 11 0 5 4 8 8 5 10 -6 34 63
26 76 -3 4 1 8 8 8 9 0 9 3 -2 10 -10 7 -11 13 -5 18 6 4 10 24 10 44 -1 30 2
35 12 26 11 -9 12 -7 6 8 -3 10 -11 22 -16 25 -5 4 -5 15 2 27 6 11 11 32 11
47 0 14 7 28 16 32 11 4 12 8 4 13 -9 6 -9 13 1 31 17 31 22 62 9 54 -5 -3
-10 3 -10 14 0 12 3 21 8 21 4 0 8 14 8 30 1 17 -2 30 -6 30 -4 0 -11 7 -14
16 -3 8 -2 13 3 10 13 -9 21 20 9 32 -14 14 -1 32 25 33 17 1 18 2 5 6 -19 5
-25 23 -8 23 6 0 4 12 -4 29 -9 16 -12 31 -9 34 3 4 0 13 -7 22 -11 13 -10 14
3 9 18 -7 17 19 -3 57 -11 19 -10 21 3 16 12 -4 14 -2 10 11 -6 15 -5 15 11 3
16 -13 16 -12 5 12 -10 22 -9 30 3 44 8 10 14 24 14 32 -1 18 -26 27 -26 10 0
-7 -3 -9 -7 -6 -3 4 2 16 11 26 17 19 17 20 -2 30 -11 6 -23 7 -27 3 -5 -4 -5
-1 -1 6 4 7 16 10 27 7 11 -4 19 -2 19 5 0 6 4 8 10 5 6 -3 7 1 3 10 -3 9 -9
12 -12 7 -3 -5 -15 -6 -26 -1 -18 7 -18 8 -2 8 17 1 17 2 3 17 -24 23 -19 26
12 7 19 -12 14 -4 -15 25 -24 22 -39 44 -34 47 5 3 16 -4 24 -15 7 -11 17 -17
20 -13 10 10 8 25 -2 19 -11 -7 -34 20 -29 35 3 8 9 6 20 -5 9 -9 19 -12 22
-8 7 11 -42 34 -54 27 -5 -3 -7 -12 -3 -20 3 -10 -1 -15 -12 -15 -10 0 -13 -4
-9 -12 5 -8 1 -8 -12 2 -10 8 -21 16 -24 18 -3 2 4 2 15 0 11 -1 20 2 20 7 0
6 4 16 8 22 5 8 -6 6 -25 -5 -18 -9 -35 -20 -36 -25 -2 -4 -8 -5 -13 -1 -5 3
-9 -4 -9 -16 0 -12 -4 -19 -9 -16 -5 3 -20 -3 -32 -15 -13 -11 -18 -18 -11
-14 7 4 11 1 10 -7 -2 -7 3 -12 10 -10 8 1 11 -2 7 -9 -5 -8 -10 -8 -18 0 -17
17 -34 13 -40 -9 -3 -11 -11 -20 -19 -19 -10 0 -10 2 0 6 16 6 16 24 0 21 -26
-6 -36 -22 -21 -36 15 -15 18 -36 4 -28 -14 9 -63 -54 -57 -73 5 -13 4 -13 -8
2 -19 24 -24 21 -20 -13 3 -26 -1 -32 -24 -42 -15 -5 -22 -12 -15 -15 8 -3 1
-15 -18 -34 -17 -17 -28 -36 -25 -44 3 -10 0 -12 -11 -8 -11 4 -14 2 -9 -5 4
-7 2 -10 -7 -7 -7 3 -19 -5 -27 -19 -7 -14 -16 -23 -21 -21 -4 3 -5 -5 -1 -17
5 -21 4 -22 -13 -8 -17 14 -18 13 -12 -2 3 -10 2 -18 -3 -18 -6 0 -10 3 -10 8
0 4 -9 61 -21 127 -31 188 -27 329 17 597 44 271 43 353 -5 496 -39 116 -70
177 -186 368 -52 84 -104 172 -116 195 -35 69 -104 275 -142 424 -42 163 -70
236 -130 349 -24 44 -54 115 -67 156 -12 41 -29 89 -37 105 -30 59 -89 127
-140 161 -53 35 -88 72 -98 104 -3 9 -25 30 -48 45 -55 36 -158 155 -175 202
-8 21 -20 52 -27 68 -12 26 -33 111 -48 195 -3 14 -17 57 -31 95 -13 39 -30
102 -36 140 -12 71 -12 72 25 188 8 27 9 49 2 75 -15 58 0 150 29 179 22 21
24 31 19 68 -6 37 1 62 64 213 38 94 88 224 111 290 42 125 103 383 94 405 -7
19 54 215 84 270 39 72 89 113 158 127 66 14 108 9 216 -25 121 -38 260 -63
441 -80 301 -28 445 -51 530 -85 44 -17 109 -38 145 -46 97 -21 274 -29 361
-15 103 16 428 41 539 41 79 0 93 -3 99 -17 21 -63 55 -116 112 -175 36 -36
80 -88 96 -115 49 -78 111 -82 151 -8 21 40 14 73 -26 119 -17 18 -30 36 -30
39 0 17 90 37 168 37 48 0 107 5 132 11 63 16 139 12 255 -14 132 -28 185 -28
224 1 28 20 37 22 79 14 72 -13 113 -4 157 32 46 39 43 60 -10 70 -20 4 -51
13 -69 21 -17 7 -58 20 -91 28 -33 8 -80 22 -105 30 -25 8 -85 26 -135 40 -49
14 -182 53 -295 87 -113 33 -242 67 -286 75 -45 8 -114 23 -155 34 -41 11
-130 32 -199 46 -69 14 -179 43 -245 65 -171 55 -257 75 -445 104 -91 15 -190
30 -220 35 -30 5 -111 7 -180 4 -122 -6 -127 -5 -215 26 -49 18 -126 46 -170
61 -101 37 -248 66 -392 78 -126 11 -175 29 -285 104 -118 82 -248 116 -461
121 -126 3 -127 3 -160 34 -17 17 -65 49 -104 72 -40 23 -77 51 -83 62 -6 11
-15 17 -20 14 -23 -14 -114 136 -169 280 -44 113 -42 163 9 257 30 56 43 95
55 168 8 52 15 98 15 102 0 3 8 4 18 1 26 -6 78 56 93 109 21 80 -5 313 -37
325 -8 3 -22 -2 -32 -10 -16 -14 -17 -9 -19 92 -3 177 -75 427 -133 463 -11 7
-20 18 -20 24 0 6 -9 19 -20 29 -11 10 -20 22 -20 26 0 14 -33 49 -46 49 -16
0 -45 35 -37 45 5 4 2 5 -5 1 -7 -4 -18 -3 -25 2 -7 5 -29 12 -50 16 -21 4
-35 11 -32 16 3 5 -9 9 -27 9 -34 0 -75 6 -118 15 -14 3 -27 0 -32 -7 -5 -8
-11 -8 -15 -2 -9 12 -83 16 -83 4z m-77 -6546 c63 -14 110 -14 162 2 16 5 30
-8 75 -72 74 -105 289 -324 370 -378 41 -28 91 -74 131 -122 35 -43 95 -112
134 -153 238 -256 321 -354 363 -432 35 -65 43 -87 38 -112 -14 -66 -30 -307
-29 -421 0 -87 6 -140 21 -194 19 -69 19 -80 7 -180 -8 -58 -19 -151 -25 -206
-14 -131 -13 -127 -47 -110 -15 8 -32 15 -36 15 -7 0 -46 16 -122 50 -11 5
-65 28 -120 51 -55 22 -116 48 -135 56 -19 8 -44 19 -55 23 -11 5 -46 20 -77
34 -31 14 -59 26 -61 26 -3 0 -43 17 -89 38 -45 21 -123 56 -173 76 -49 21
-122 53 -162 72 -40 19 -75 34 -78 34 -6 0 -191 81 -335 148 -36 17 -130 58
-210 92 -152 66 -232 101 -290 128 -19 9 -37 16 -40 17 -3 0 -21 8 -40 16
-101 48 -151 70 -210 94 -36 14 -74 30 -85 34 -11 5 -50 20 -87 35 -38 14 -98
38 -135 52 -97 38 -189 82 -201 97 -5 6 -11 21 -13 32 -4 23 29 77 41 70 5 -3
16 2 24 11 9 9 22 17 29 18 15 2 62 36 93 67 14 14 24 17 28 10 5 -8 11 -8 21
1 24 22 96 73 101 71 6 -4 59 51 56 59 -1 5 1 7 6 6 4 0 18 4 32 10 14 6 18
11 10 11 -10 1 -7 6 8 17 12 8 27 12 34 8 7 -5 9 -2 5 8 -3 9 3 24 14 34 24
22 24 29 -1 54 -13 13 -16 22 -8 26 12 8 40 -24 33 -37 -3 -4 3 -5 13 -2 12 3
18 13 17 26 -1 12 3 25 9 29 8 5 7 8 -2 8 -7 0 -17 -10 -23 -22 -9 -22 -9 -21
-6 5 4 26 -6 37 -17 18 -8 -12 -56 -11 -56 2 0 6 -3 7 -6 4 -4 -4 -1 -13 6
-22 11 -13 10 -14 -4 -9 -9 3 -16 10 -16 15 0 5 -5 9 -11 9 -6 0 -8 -9 -3 -22
6 -22 6 -22 -12 -6 -16 13 -21 14 -31 3 -6 -7 -9 -16 -5 -21 4 -4 1 -4 -6 0
-7 4 -10 11 -7 16 3 4 -6 7 -20 6 -20 -1 -23 -5 -19 -21 6 -18 6 -18 -10 -2
-23 22 -25 21 -18 -5 5 -22 4 -22 -15 -5 -21 19 -38 23 -28 7 3 -5 1 -10 -4
-10 -6 0 -11 6 -12 13 0 9 -2 9 -6 -1 -2 -6 -10 -9 -16 -5 -6 4 -8 0 -5 -9 4
-9 0 -15 -8 -15 -8 0 -14 7 -15 16 0 10 -2 12 -6 4 -2 -7 -12 -13 -20 -13 -13
0 -13 -3 -3 -15 16 -20 6 -19 -14 1 -9 8 -16 11 -16 6 0 -5 -17 -22 -37 -38
-32 -23 -28 -17 20 35 52 57 75 72 235 152 128 65 210 114 297 179 66 50 151
106 188 126 38 20 148 86 245 147 250 158 299 171 475 130z m2641 -1623 c-6
-6 -10 -3 -10 10 0 13 4 16 10 10 7 -7 7 -13 0 -20z m54 -16 c-4 -3 -12 5 -18
18 -12 22 -12 22 6 6 10 -10 15 -20 12 -24z m-88 11 c0 -8 -7 -15 -15 -15 -13
0 -14 3 -3 15 16 18 18 18 18 0z m-99 -82 c13 -16 12 -17 -3 -4 -10 7 -18 15
-18 17 0 8 8 3 21 -13z m234 -93 c-3 -5 -11 -10 -16 -10 -6 0 -7 5 -4 10 3 6
11 10 16 10 6 0 7 -4 4 -10z m-318 -26 c-3 -3 -12 -4 -19 -1 -8 3 -5 6 6 6 11
1 17 -2 13 -5z m-220 -256 c-3 -7 -5 -2 -5 12 0 14 2 19 5 13 2 -7 2 -19 0
-25z"/>
<path d="M4700 4919 c0 -5 5 -7 10 -4 6 3 10 8 10 11 0 2 -4 4 -10 4 -5 0 -10
-5 -10 -11z"/>
<path d="M8415 4180 c3 -5 8 -10 11 -10 2 0 4 5 4 10 0 6 -5 10 -11 10 -5 0
-7 -4 -4 -10z"/>
<path d="M8365 4170 c-4 -6 -11 -7 -17 -4 -7 4 -8 2 -4 -4 7 -12 36 -5 36 9 0
12 -7 11 -15 -1z"/>
<path d="M8290 4151 c0 -6 4 -13 10 -16 6 -3 7 1 4 9 -7 18 -14 21 -14 7z"/>
<path d="M8245 4100 c-3 -5 1 -10 10 -10 9 0 13 5 10 10 -3 6 -8 10 -10 10 -2
0 -7 -4 -10 -10z"/>
<path d="M8478 4053 c7 -3 16 -2 19 1 4 3 -2 6 -13 5 -11 0 -14 -3 -6 -6z"/>
<path d="M8495 3959 c-4 -6 -5 -12 -2 -15 2 -3 7 2 10 11 7 17 1 20 -8 4z"/>
<path d="M8116 3935 c-3 -8 -1 -15 4 -15 13 0 22 18 11 24 -5 3 -11 -1 -15 -9z"/>
<path d="M8075 3890 c-3 -5 -1 -10 4 -10 6 0 11 5 11 10 0 6 -2 10 -4 10 -3 0
-8 -4 -11 -10z"/>
<path d="M8460 3775 c-8 -45 -8 -47 2 -37 5 5 8 18 5 28 -3 11 -6 15 -7 9z"/>
<path d="M8456 3705 c-3 -8 -1 -15 4 -15 6 0 10 7 10 15 0 8 -2 15 -4 15 -2 0
-6 -7 -10 -15z"/>
</g>
</svg>
