<svg width="1675" height="1669" viewBox="0 0 1675 1669" fill="none" xmlns="http://www.w3.org/2000/svg">
<path d="M1647.77 485.786C1633.77 487.656 1314.21 529.757 1062.61 649.632C1017.07 345.964 865.225 27.4892 858.569 13.6173C856.664 9.64602 853.675 6.29407 849.947 3.94792C846.219 1.60177 841.904 0.356934 837.499 0.356934C833.095 0.356934 828.78 1.60177 825.052 3.94792C821.324 6.29407 818.335 9.64602 816.43 13.6173C809.774 27.4892 657.912 345.964 612.389 649.65C360.769 529.739 41.2288 487.506 27.226 485.786C23.0098 485.245 18.7259 485.864 14.8355 487.577C10.9452 489.29 7.59563 492.031 5.14755 495.507C2.69947 498.982 1.24555 503.058 0.942347 507.298C0.639143 511.538 1.49813 515.781 3.42682 519.568C10.6619 533.796 178.303 860.627 396.028 1055.13C302.956 1145.9 219.373 1245.91 146.577 1353.62C144.265 1357.15 142.949 1361.23 142.768 1365.45C142.588 1369.66 143.549 1373.84 145.551 1377.55C147.553 1381.26 150.521 1384.36 154.141 1386.53C157.76 1388.69 161.897 1389.83 166.113 1389.84H166.506C181.574 1389.57 537.795 1382.21 752.006 1264.28C773.93 1252.15 794.722 1238.08 814.13 1222.23V1644.75C814.13 1650.94 816.592 1656.89 820.975 1661.27C825.358 1665.65 831.302 1668.12 837.499 1668.12C843.697 1668.12 849.641 1665.65 854.024 1661.27C858.406 1656.89 860.869 1650.94 860.869 1644.75V1175.83C861.12 1174.8 861.295 1173.76 861.392 1172.71C861.274 1171.78 861.099 1170.86 860.869 1169.96V1062.76L1373.12 751.764C1378.42 748.541 1382.22 743.346 1383.69 737.321C1385.15 731.296 1384.17 724.934 1380.94 719.636C1377.72 714.338 1372.53 710.538 1366.5 709.07C1360.48 707.603 1354.11 708.589 1348.82 711.812L860.869 1008.1V544.845C860.869 538.647 858.406 532.703 854.024 528.32C849.641 523.938 843.697 521.475 837.499 521.475C831.302 521.475 825.358 523.938 820.975 528.32C816.592 532.703 814.13 538.647 814.13 544.845V1008.1L326.145 711.85C320.847 708.627 314.486 707.641 308.461 709.108C302.436 710.575 297.24 714.376 294.017 719.674C290.795 724.972 289.808 731.333 291.275 737.358C292.743 743.383 296.543 748.579 301.841 751.802L814.13 1062.76V1159.28C789.215 1184.67 760.698 1206.24 729.497 1223.32C569.54 1311.37 316.031 1334.95 212.272 1341.1C281.372 1243.87 359.899 1153.69 446.711 1071.88C449.176 1069.65 451.134 1066.91 452.453 1063.85C453.773 1060.79 454.423 1057.49 454.361 1054.16C454.299 1050.83 453.526 1047.56 452.094 1044.55C450.662 1041.55 448.603 1038.88 446.057 1036.74C270.789 888.857 121.469 637.181 67.0283 539.124C170.002 556.155 425.978 605.922 620.409 705.736C623.754 707.457 627.464 708.344 631.225 708.323C634.986 708.301 638.686 707.371 642.01 705.613C645.334 703.854 648.185 701.319 650.319 698.222C652.453 695.125 653.807 691.559 654.267 687.826C684.067 448.676 791.509 184.922 837.481 80.2287C883.434 184.922 990.876 448.526 1020.69 687.826C1021.15 691.559 1022.51 695.125 1024.64 698.222C1026.78 701.319 1029.63 703.854 1032.95 705.613C1036.28 707.371 1039.98 708.301 1043.74 708.323C1047.5 708.344 1051.21 707.457 1054.55 705.736C1249.1 605.903 1505.11 556.174 1607.93 539.124C1553.53 637.069 1404.3 888.763 1228.94 1036.7C1226.4 1038.84 1224.34 1041.51 1222.91 1044.51C1221.47 1047.52 1220.7 1050.8 1220.64 1054.12C1220.58 1057.45 1221.23 1060.76 1222.55 1063.81C1223.87 1066.87 1225.82 1069.61 1228.29 1071.85C1315.1 1153.65 1393.63 1243.82 1462.73 1341.06C1375.33 1335.92 1181.59 1318.44 1027.22 1260.39C1021.42 1258.2 1014.99 1258.41 1009.34 1260.97C1003.69 1263.53 999.295 1268.23 997.111 1274.03C994.927 1279.83 995.136 1286.26 997.694 1291.91C1000.25 1297.55 1004.95 1301.95 1010.75 1304.14C1223.43 1384.11 1496.94 1389.63 1508.47 1389.84H1508.87C1513.08 1389.83 1517.22 1388.69 1520.84 1386.53C1524.46 1384.36 1527.43 1381.26 1529.43 1377.55C1531.43 1373.84 1532.39 1369.66 1532.21 1365.45C1532.03 1361.23 1530.72 1357.15 1528.4 1353.62C1455.61 1245.91 1372.04 1145.9 1278.97 1055.13C1496.68 860.702 1664.34 533.777 1671.57 519.568C1673.5 515.781 1674.36 511.538 1674.06 507.298C1673.75 503.058 1672.3 498.982 1669.85 495.507C1667.4 492.031 1664.05 489.29 1660.16 487.577C1656.27 485.864 1651.99 485.245 1647.77 485.786Z" fill="#F6893D"/>
</svg>
