<svg width="32" height="32" viewBox="0 0 32 32" fill="none" xmlns="http://www.w3.org/2000/svg">
  <title>Email and Password Authentication</title>
  <desc>Icon representing email and password credentials authentication method</desc>
  
  <!-- Email envelope -->
  <path d="M4 8C4 6.89543 4.89543 6 6 6H26C27.1046 6 28 6.89543 28 8V14H4V8Z" fill="#4285F4" opacity="0.8"/>
  <path d="M4 14V22C4 23.1046 4.89543 24 6 24H26C27.1046 24 28 23.1046 28 22V14L16 19L4 14Z" fill="#4285F4"/>
  <path d="M28 8L16 13L4 8" stroke="white" stroke-width="1.5" stroke-linecap="round" stroke-linejoin="round"/>
  
  <!-- Lock/Key icon overlay -->
  <circle cx="24" cy="24" r="7" fill="white"/>
  <circle cx="24" cy="24" r="7" stroke="#34A853" stroke-width="1.5"/>
  <rect x="21" y="24" width="6" height="4" rx="1" fill="#34A853"/>
  <circle cx="24" cy="23" r="2" stroke="#34A853" stroke-width="1.5" fill="none"/>
</svg>
