<svg width="1675" height="1675" viewBox="0 0 1675 1675" fill="none" xmlns="http://www.w3.org/2000/svg">
<path d="M1650.75 962.011H1650C1510.96 962.011 1385.31 935.837 1380.79 906.056C1374.71 865.169 1516.63 773.506 1652.99 713.494C1658.55 711.061 1662.94 706.561 1665.25 700.946C1667.55 695.331 1667.57 689.041 1665.32 683.406C1663.06 677.772 1658.71 673.236 1653.17 670.756C1647.63 668.277 1641.34 668.049 1635.64 670.121C1501.88 718.486 1342.59 747.576 1318.72 713.774C1299.29 686.292 1378.97 574.737 1462.67 491.786C1466.79 487.706 1469.24 482.242 1469.55 476.455C1469.87 470.668 1468.02 464.972 1464.37 460.471C1460.72 455.97 1455.52 452.986 1449.8 452.098C1444.07 451.21 1438.22 452.482 1433.38 455.667L1001.85 739.78L1170.78 146.633C1172.41 140.944 1171.81 134.85 1169.11 129.582C1166.42 124.314 1161.83 120.265 1156.26 118.251C1150.7 116.236 1144.58 116.408 1139.14 118.729C1133.7 121.051 1129.34 125.351 1126.94 130.761C1073.12 252.281 989.064 375.838 949.804 366.584C896.372 353.852 865.133 154.317 860.833 23.4688C860.833 17.2709 858.37 11.3268 853.988 6.94425C849.605 2.56169 843.661 0.0996094 837.464 0.0996094C831.266 0.0996094 825.322 2.56169 820.939 6.94425C816.556 11.3268 814.094 17.2709 814.094 23.4688C809.813 154.336 778.573 353.834 725.123 366.584C685.676 375.763 601.734 252.169 547.985 130.761C545.589 125.351 541.231 121.051 535.788 118.729C530.346 116.408 524.226 116.236 518.662 118.251C513.099 120.265 508.507 124.314 505.812 129.582C503.118 134.85 502.522 140.944 504.145 146.633L673.076 739.78L241.607 455.742C236.765 452.557 230.912 451.285 225.185 452.173C219.458 453.061 214.266 456.044 210.615 460.545C206.964 465.046 205.116 470.743 205.43 476.53C205.743 482.317 208.196 487.781 212.311 491.861C295.991 574.775 375.652 686.292 356.265 713.849C332.354 747.632 173.051 718.579 39.3419 670.196C33.6384 668.124 27.3526 668.352 21.814 670.831C16.2754 673.31 11.9185 677.847 9.66481 683.481C7.41112 689.115 7.43743 695.405 9.73816 701.021C12.0389 706.636 16.4336 711.136 21.9927 713.569C158.356 773.506 300.272 865.15 294.178 906.13C289.747 936.043 164.077 962.086 24.9653 962.086H24.2548C18.3173 962.099 12.6073 964.372 8.28486 968.442C3.9624 972.513 1.35157 978.077 0.982679 984.003C0.613784 989.929 2.51448 995.773 6.29872 1000.35C10.083 1004.92 15.4669 1007.89 21.357 1008.64L592.723 1080.17L354.414 1232.21C349.922 1235.04 346.523 1239.3 344.776 1244.31C343.029 1249.32 343.039 1254.77 344.803 1259.78C346.567 1264.78 349.98 1269.03 354.483 1271.84C358.985 1274.64 364.308 1275.83 369.576 1275.21L814.132 1225.43V1650.75C814.132 1656.94 816.594 1662.89 820.976 1667.27C825.359 1671.65 831.303 1674.12 837.501 1674.12C843.699 1674.12 849.643 1671.65 854.025 1667.27C858.408 1662.89 860.87 1656.94 860.87 1650.75V1022.34L1257.7 859.13C1260.55 857.977 1263.15 856.269 1265.35 854.106C1267.54 851.943 1269.29 849.367 1270.48 846.527C1271.68 843.687 1272.3 840.638 1272.31 837.557C1272.33 834.475 1271.73 831.422 1270.56 828.572C1269.39 825.722 1267.66 823.133 1265.48 820.952C1263.31 818.771 1260.72 817.042 1257.87 815.865C1255.02 814.688 1251.97 814.086 1248.89 814.093C1245.81 814.1 1242.76 814.717 1239.92 815.907L860.87 971.788V602.257C860.87 596.059 858.408 590.115 854.025 585.732C849.643 581.35 843.699 578.888 837.501 578.888C831.303 578.888 825.359 581.35 820.976 585.732C816.594 590.115 814.132 596.059 814.132 602.257V971.788L435.103 815.888C429.369 813.531 422.933 813.547 417.211 815.935C411.489 818.323 406.95 822.885 404.592 828.62C402.235 834.354 402.251 840.79 404.639 846.512C407.027 852.234 411.59 856.773 417.324 859.13L814.15 1022.34V1178.41L464.324 1217.52L672.477 1084.67C676.53 1082.08 679.685 1078.31 681.514 1073.86C683.343 1069.42 683.757 1064.52 682.698 1059.83C681.639 1055.14 679.159 1050.89 675.597 1047.66C672.035 1044.43 667.564 1042.38 662.793 1041.78L233.138 987.979C289.074 974.088 334.709 951.037 340.355 912.917C347.459 865.094 291.747 813.047 224.93 768.795C298.029 780.423 367.501 778.853 394.347 740.752C420.913 703.156 393.674 642.471 354.321 585.824L699.997 813.402C703.982 816.029 708.675 817.374 713.447 817.254C718.219 817.134 722.839 815.556 726.687 812.732C730.535 809.908 733.427 805.974 734.972 801.458C736.517 796.942 736.642 792.061 735.331 787.471L603.922 326.034C644.135 380.736 691.079 422.707 736.023 412.032C789.267 399.357 819.89 319.266 837.501 234.258C855.093 319.266 885.735 399.357 938.979 412.032C983.979 422.67 1030.89 380.699 1071.1 326.034L939.671 787.49C938.359 792.08 938.485 796.96 940.03 801.477C941.575 805.993 944.466 809.927 948.314 812.751C952.162 815.575 956.783 817.153 961.555 817.273C966.326 817.392 971.02 816.048 975.005 813.421L1320.66 585.898C1281.4 642.545 1254.07 703.23 1280.64 740.827C1307.48 778.853 1376.95 780.423 1450.05 768.87C1383.18 813.121 1327.52 865.169 1334.63 912.992C1340.24 951.112 1385.91 974.163 1441.85 988.053L1012.21 1041.78C1007.44 1042.38 1002.97 1044.43 999.405 1047.66C995.843 1050.89 993.363 1055.14 992.304 1059.83C991.245 1064.52 991.658 1069.42 993.487 1073.86C995.316 1078.31 998.472 1082.08 1002.52 1084.67L1210.68 1217.52L995.981 1193.51C989.896 1192.97 983.841 1194.83 979.111 1198.7C974.381 1202.57 971.354 1208.13 970.677 1214.2C970 1220.27 971.727 1226.37 975.489 1231.18C979.25 1235.99 984.747 1239.14 990.802 1239.95L1305.41 1275.14C1306.28 1275.23 1307.15 1275.28 1308.02 1275.29C1313.06 1275.26 1317.95 1273.61 1321.97 1270.58C1325.99 1267.55 1328.93 1263.31 1330.34 1258.47C1331.75 1253.64 1331.57 1248.48 1329.81 1243.76C1328.05 1239.05 1324.82 1235.02 1320.59 1232.29L1082.28 1080.11L1653.64 1008.58C1659.53 1007.83 1664.92 1004.87 1668.7 1000.29C1672.49 995.717 1674.39 989.873 1674.02 983.947C1673.65 978.021 1671.04 972.457 1666.72 968.386C1662.39 964.316 1656.68 962.024 1650.75 962.011Z" fill="currentColor"/>
</svg>
