<svg width="98" height="117" viewBox="0 0 98 117" fill="none" xmlns="http://www.w3.org/2000/svg">
<path d="M97.2108 17.6872C96.5008 36.5672 95.6608 55.9772 87.9608 73.2372C85.8408 77.9672 83.2208 82.4772 80.1608 86.6672C73.8708 95.2572 65.7508 102.527 56.4608 107.727C47.7908 112.587 38.1208 115.647 28.2408 116.737C25.9708 116.987 23.7108 116.977 21.4708 116.927C24.4308 95.3872 32.4808 74.5672 49.8608 61.2572C52.2608 59.7072 50.2308 55.8072 47.5708 56.8572C25.3508 66.3972 10.7708 85.6472 1.13078 107.557C0.920781 105.307 0.810781 103.287 0.740781 102.297C0.0107808 92.6372 -0.409219 82.9072 0.590781 73.2372C1.89078 60.6172 5.76078 47.9572 13.6608 38.0172C21.5408 28.0872 32.8408 21.5172 44.2108 15.9072C53.4808 11.3272 62.9908 7.22716 72.5608 3.31716C78.0608 1.07716 94.6508 -1.71284 96.2108 1.35716C97.9808 4.85716 97.3608 13.7672 97.2108 17.6872Z" fill="#F5883D"/>
</svg>
