<svg width="32" height="22" viewBox="0 0 32 22" fill="none" xmlns="http://www.w3.org/2000/svg">
<path d="M31.651 1.18728C22.5297 -0.827227 15.636 -0.275992 11.1633 2.82444C7.3888 5.44051 6.84877 8.88837 6.79987 9.27275C6.59732 10.7875 6.77089 12.3282 7.30564 13.7622C4.61433 15.9907 2.19306 18.5184 0.0899803 21.295C0.0544641 21.3414 0.0286338 21.3944 0.0139841 21.4507C-0.000665467 21.507 -0.00384384 21.5657 0.00463219 21.6232C0.0131082 21.6808 0.0330703 21.7361 0.063365 21.786C0.0936596 21.8359 0.133686 21.8794 0.181127 21.914C0.228569 21.9485 0.282485 21.9734 0.339758 21.9873C0.397031 22.0012 0.456524 22.0037 0.514797 21.9948C0.57307 21.9858 0.628965 21.9656 0.679251 21.9352C0.729537 21.9048 0.773217 21.8649 0.807762 21.8177C3.89319 17.7943 7.61484 14.2867 11.8301 11.4291L19.902 13.9861C19.9579 14.0043 20.0169 14.0114 20.0756 14.007C20.1343 14.0025 20.1916 13.9867 20.2441 13.9604C20.2965 13.9341 20.3432 13.8978 20.3814 13.8536C20.4196 13.8094 20.4485 13.7581 20.4666 13.7029C20.4846 13.6476 20.4913 13.5893 20.4864 13.5315C20.4815 13.4736 20.465 13.4173 20.4379 13.3657C20.4108 13.3142 20.3736 13.2684 20.3285 13.2311C20.2834 13.1938 20.2312 13.1656 20.175 13.1483L12.7599 10.7997C15.675 8.83989 18.7843 7.17696 22.04 5.83651C22.1487 5.79379 22.2361 5.71062 22.2833 5.60495C22.3304 5.49927 22.3335 5.37955 22.292 5.27161C22.2505 5.16367 22.1676 5.07616 22.0612 5.02795C21.9548 4.97973 21.8335 4.97468 21.7234 5.01389C20.2618 5.60122 18.834 6.26715 17.4463 7.00868L17.6744 4.22505C17.6791 4.16745 17.6722 4.10951 17.6542 4.05453C17.6362 3.99955 17.6074 3.9486 17.5694 3.90461C17.4927 3.81575 17.3833 3.76059 17.2654 3.75126C17.1474 3.74192 17.0305 3.77918 16.9404 3.85483C16.8503 3.93048 16.7944 4.03833 16.7849 4.15465L16.5097 7.51099C15.0396 8.31637 13.3534 9.32168 11.5706 10.5382C11.5054 10.5632 11.4471 10.6031 11.4007 10.6547C10.3028 11.4101 9.17165 12.2458 8.03484 13.1624C7.63389 11.9441 7.51426 10.6527 7.68469 9.38293C7.8446 8.13086 8.86506 5.49226 11.6751 3.54463C15.7277 0.736011 22.2384 0.155209 30.5449 1.85256C29.4841 2.77586 27.6412 4.71187 27.2383 7.29767C27.1562 7.82568 27.0859 8.41774 27.0116 9.04606C26.5962 12.5608 26.0261 17.3734 22.393 19.6022C19.1303 21.6009 13.0129 19.9655 9.80342 16.2357C9.76594 16.1903 9.71966 16.1528 9.66729 16.1253C9.61492 16.0978 9.55751 16.0808 9.49842 16.0755C9.43933 16.0701 9.37975 16.0764 9.32317 16.094C9.26659 16.1117 9.21414 16.1402 9.16889 16.1781C9.12364 16.2159 9.0865 16.2623 9.05965 16.3145C9.0328 16.3667 9.01678 16.4236 9.01251 16.482C9.00825 16.5404 9.01584 16.599 9.03483 16.6544C9.05382 16.7099 9.08383 16.761 9.12311 16.8049C11.5823 19.6628 15.5082 21.3492 18.9029 21.3492C20.2921 21.3856 21.6641 21.0394 22.8648 20.3495C26.8624 17.8982 27.4624 12.8406 27.8993 9.14779C27.9728 8.52757 28.0421 7.94184 28.1217 7.43108C28.6232 4.20851 31.7773 1.99935 31.8091 1.97752C31.8801 1.92868 31.9352 1.86051 31.9676 1.78134C32 1.70217 32.0083 1.61542 31.9916 1.53165C31.9749 1.44788 31.9338 1.37072 31.8734 1.30957C31.813 1.24843 31.7355 1.20593 31.651 1.18728Z" fill="#F6893D"/>
</svg>
